<svg width="81" height="27" viewBox="0 0 81 27" fill="none" xmlns="http://www.w3.org/2000/svg">
<path d="M32 21.2949C29.6282 21.2949 27.7051 19.3647 27.7051 17C27.7051 14.6353 29.6353 12.7051 32 12.7051C34.3647 12.7051 36.2949 14.6353 36.2949 17C36.2949 19.3647 34.3647 21.2949 32 21.2949ZM32 7C26.4872 7 22 11.4872 22 17C22 22.5128 26.4872 27 32 27C37.5128 27 42 22.5128 42 17C42 11.4872 37.5128 7 32 7Z" fill="white"/>
<path d="M78.1003 14.1584C76.4942 14.1584 75.186 15.4326 75.186 17.0129C75.186 19.3762 73.2166 21.3053 70.8038 21.3053C68.391 21.3053 66.4215 19.3762 66.4215 17.0129V12.7205H71.5015C73.1076 12.7205 74.4157 11.4463 74.4157 9.86607C74.4157 8.28579 73.1148 7.0116 71.5015 7.0116H66.4215V2.85447C66.4215 1.28131 65.1206 0 63.5073 0C61.8939 0 60.593 1.27419 60.593 2.85447V17.0058C60.593 19.3691 58.6235 21.2982 56.2108 21.2982C53.798 21.2982 51.8285 19.3691 51.8285 17.0058V9.85895C51.8285 8.28579 50.5276 7.00448 48.9142 7.00448C47.3009 7.00448 46 8.27867 46 9.85895V17.0058C46 22.5154 50.5785 27 56.2035 27C59.0596 27 61.6468 25.8468 63.5 23.9818C65.3532 25.8397 67.9404 27 70.7965 27C76.4215 27 81 22.5154 81 17.0058C81 15.4326 79.6991 14.1513 78.0858 14.1513" fill="#EB6087"/>
<path d="M19.9714 16.7745C20.0209 11.3919 19.9926 8.52255 19.9856 3.14701C19.9856 1.29583 18.7767 0 17.1083 0C15.4471 0 14.2523 1.31007 14.2523 3.15413C14.2523 5.48234 14.2594 5.29722 14.2665 7.7536C13.8565 7.60408 13.5808 7.49728 13.305 7.3976C8.51205 5.71018 3.21714 7.91023 1.00444 12.5239C-1.20118 17.1092 0.325787 22.6342 4.60272 25.3327C7.90409 27.4188 11.361 27.5612 14.7613 25.6816C18.197 23.7805 19.929 20.719 19.9643 16.7745H19.9714ZM6.89318 19.8575C5.33086 18.1558 5.39449 15.3292 7.0275 13.7913C8.75948 12.1679 11.5236 12.2463 13.1 13.9764C14.6836 15.7208 14.5987 18.4192 12.9021 20.007C11.1913 21.609 8.44136 21.5378 6.90025 19.8575H6.89318Z" fill="white"/>
<path d="M46.2247 4.13827C46.2996 4.31772 46.397 4.49716 46.5019 4.66165C46.6142 4.82614 46.7341 4.98315 46.8689 5.11773C47.0037 5.25232 47.161 5.37942 47.3258 5.49158C47.4831 5.60373 47.6629 5.69345 47.8502 5.76822C48.03 5.84299 48.2172 5.9028 48.412 5.94019C48.6067 5.97757 48.8015 6 48.9963 6C49.7828 6 50.5618 5.6785 51.1236 5.12521C51.2584 4.99063 51.3858 4.83362 51.4981 4.66913C51.603 4.51211 51.7004 4.33267 51.7753 4.14575C51.8502 3.96631 51.9101 3.77938 51.9476 3.58499C51.985 3.39059 52 3.19619 52 3.0018C52 2.8074 51.985 2.613 51.9476 2.41113C51.9101 2.22421 51.8502 2.02981 51.7753 1.85036C51.7004 1.67092 51.603 1.49148 51.4981 1.33446C51.3858 1.16997 51.2584 1.01296 51.1236 0.878378C50.427 0.183034 49.3933 -0.13847 48.4195 0.0559274C48.2247 0.0933115 48.0375 0.153126 47.8577 0.227895C47.6779 0.302663 47.4981 0.399861 47.3333 0.504537C47.1685 0.616689 47.0112 0.743795 46.8764 0.878378C46.7416 1.01296 46.6142 1.16997 46.5094 1.33446C46.397 1.49148 46.3071 1.67092 46.2322 1.85036C46.1573 2.02981 46.0974 2.21673 46.0599 2.41113C46.0225 2.60552 46 2.79992 46 3.0018C46 3.20367 46.0225 3.39059 46.0599 3.58499C46.0899 3.77938 46.1498 3.96631 46.2247 4.14575" fill="#EB6087"/>
</svg>
